<svg width="25" height="25" viewBox="0 0 25 25" fill="none" xmlns="http://www.w3.org/2000/svg">
<g clip-path="url(#clip0)">
<path d="M22.9167 5.20855H17.7083V4.16685C17.7083 3.01787 16.774 2.0835 15.625 2.0835H9.375C8.22603 2.0835 7.29165 3.01782 7.29165 4.16685V5.2085H2.08335C0.934326 5.20855 0 6.14288 0 7.29186V10.4169C0 11.5659 0.934326 12.5002 2.08335 12.5002H10.4167V11.9794C10.4167 11.6915 10.6497 11.4585 10.9375 11.4585H14.0625C14.3504 11.4585 14.5834 11.6915 14.5834 11.9794V12.5002H22.9167C24.0657 12.5002 25 11.5659 25 10.4169V7.29186C25 6.14288 24.0657 5.20855 22.9167 5.20855ZM15.625 5.20855H9.375V4.16685H15.625V5.20855Z" fill="#4EAFF1"/>
<path d="M24.7111 13.0623C24.5336 12.9743 24.3215 12.9947 24.1648 13.1137C23.7945 13.394 23.3632 13.542 22.9166 13.542H14.5833V15.1045C14.5833 15.3924 14.3504 15.6253 14.0625 15.6253H10.9375C10.6496 15.6253 10.4166 15.3924 10.4166 15.1045V13.542H2.08335C1.63677 13.542 1.20547 13.394 0.835156 13.1137C0.677979 12.9937 0.466406 12.9733 0.288867 13.0623C0.111914 13.1504 0 13.3309 0 13.5288V20.8337C0 21.9827 0.934326 22.917 2.08335 22.917H22.9167C24.0657 22.917 25 21.9827 25 20.8337V13.5288C25 13.3309 24.8881 13.1504 24.7111 13.0623Z" fill="#4EAFF1"/>
</g>
<defs>
<clipPath id="clip0">
<rect width="25" height="25" fill="white"/>
</clipPath>
</defs>
</svg>
