<svg width="30" height="30" viewBox="0 0 30 30" fill="none" xmlns="http://www.w3.org/2000/svg">
<g clip-path="url(#clip0)">
<path d="M16.7217 5.34131H6.4949C5.74171 5.34131 5.13086 5.95216 5.13086 6.70471C5.13086 7.45727 5.74171 8.06812 6.4949 8.06812H16.7217C17.4762 8.06812 18.0858 7.45727 18.0858 6.70471C18.0851 5.95216 17.4755 5.34131 16.7217 5.34131Z" fill="white"/>
<path d="M18.0851 11.818C18.0851 11.0648 17.4755 10.4546 16.7211 10.4546H6.4949C5.74171 10.4546 5.13086 11.0654 5.13086 11.818C5.13086 12.5712 5.74171 13.182 6.4949 13.182H16.7217C17.4755 13.182 18.0851 12.5712 18.0851 11.818Z" fill="white"/>
<path d="M11.6089 18.2956C12.3621 18.2956 12.9723 17.6847 12.9723 16.9322C12.9723 16.179 12.3621 15.5681 11.6089 15.5681H6.4949C5.74171 15.5681 5.13086 16.179 5.13086 16.9322C5.13086 17.6854 5.74171 18.2956 6.4949 18.2956H11.6089Z" fill="white"/>
<path d="M21.9052 22.934L20.4748 23.8781V27.2726H2.74796V2.72745H20.4748V8.11596L23.2022 3.39192V1.3634C23.2022 0.610213 22.5914 0 21.8382 0H1.38391C0.630721 0 0.0205078 0.610851 0.0205078 1.3634V28.6372C0.0205078 29.3904 0.630721 30.0006 1.38391 30.0006H21.8382C22.592 30.0006 23.2029 29.3898 23.2029 28.6372V21.1213L22.5511 22.2485C22.3922 22.5236 22.1688 22.7604 21.9052 22.934Z" fill="white"/>
<path d="M29.9656 6.31541C29.9375 6.19285 29.6496 5.09115 27.9147 4.08902C26.1798 3.08753 25.082 3.38881 24.9607 3.42647C24.7979 3.47817 24.6607 3.58796 24.5751 3.73604L16.0526 18.4973C15.9996 18.5899 15.9683 18.6926 15.962 18.7986L15.6428 24.1252C15.6275 24.3831 15.759 24.6269 15.9817 24.7565C16.2064 24.8854 16.4828 24.8765 16.6986 24.7354L21.152 21.7954C21.2407 21.738 21.3141 21.6595 21.3671 21.5682L29.8902 6.80434C29.9758 6.65626 30.0019 6.48264 29.9656 6.31541ZM18.4168 22.3756C18.1903 22.1924 17.933 22.0194 17.6566 21.8592C17.379 21.699 17.1007 21.5643 16.8288 21.4584L16.9239 19.8614C17.2794 19.908 17.8066 20.0522 18.4762 20.4377C19.1451 20.8239 19.5326 21.2094 19.7522 21.4935L18.4168 22.3756Z" fill="white"/>
<path d="M9.52412 24.5961C9.5688 24.8699 9.88476 24.9548 10.096 25.0429C10.3003 25.1291 10.5441 24.9657 10.7139 24.8833C11.7543 24.3772 13.1637 24.972 14.2782 24.972C14.9375 24.972 14.9375 23.9495 14.2782 23.9495C12.9786 23.9495 11.8973 23.6208 10.6092 23.8333C10.6092 23.7586 10.5818 23.6578 10.5014 23.5206C10.2607 23.1089 9.95433 22.992 9.64731 23.0418C9.62688 22.9933 9.6071 22.9448 9.57837 22.8957C9.49795 22.7642 9.38561 22.6984 9.25922 22.671C9.61859 22.0429 9.85029 21.3784 9.61476 20.841C9.54263 20.6776 9.33773 20.594 9.17305 20.5876C8.49007 20.562 7.90412 21.2789 7.46497 21.7091C6.36646 22.7859 5.3988 24.0082 4.46242 25.2248C4.06029 25.7476 4.94944 26.2557 5.34518 25.7418C6.17497 24.6644 7.05391 23.6182 7.99986 22.6397C7.77199 23.0137 7.53008 23.3808 7.27539 23.7344C6.91156 24.2967 7.78029 24.7754 8.15816 24.2508C8.24816 24.1135 8.36242 24.0146 8.48752 23.9297C8.46263 23.9929 8.4371 24.0548 8.41156 24.1186C8.41284 24.1186 8.41412 24.1193 8.41539 24.1199C8.39561 24.1608 8.37582 24.2016 8.35986 24.2406C8.13135 24.8131 8.98476 25.0754 9.29497 24.6337C9.37348 24.5227 9.44625 24.404 9.51199 24.2795C9.50752 24.365 9.50561 24.4799 9.52412 24.5961Z" fill="white"/>
</g>
<defs>
<clipPath id="clip0">
<rect width="30" height="30" fill="white"/>
</clipPath>
</defs>
</svg>
