<svg width="25" height="25" viewBox="0 0 25 25" fill="none" xmlns="http://www.w3.org/2000/svg">
<g clip-path="url(#clip0)">
<path d="M12.4982 5.27197C10.0556 5.27197 8.06836 7.25905 8.06836 9.7016C8.06836 12.1443 10.0556 14.1314 12.4982 14.1314C14.9407 14.1314 16.9278 12.1443 16.9278 9.7016C16.9278 7.25905 14.9407 5.27197 12.4982 5.27197Z" fill="#4EAFF1"/>
<path d="M21.7252 12.6997L20.3819 9.70171L21.7252 6.70374L18.8764 5.06782L18.201 1.85279L14.9345 2.20394L12.4985 0L10.0622 2.20394L6.79588 1.85299L6.12049 5.06801L3.27148 6.70374L4.61483 9.70171L3.27148 12.6997L6.12049 14.3356L6.48631 16.0774L3.44524 22.5393L6.61907 22.5809L8.67404 25L11.6632 18.6479L12.4985 19.4034L13.3335 18.6479L16.3229 25L18.3777 22.5809L21.5515 22.5393L18.5104 16.0774L18.8764 14.3356L21.7252 12.6997ZM12.4985 15.5962C9.24815 15.5962 6.604 12.952 6.604 9.70171C6.604 6.4514 9.24815 3.80725 12.4985 3.80725C15.7486 3.80725 18.3929 6.45159 18.3929 9.70171C18.3929 12.952 15.7486 15.5962 12.4985 15.5962Z" fill="#4EAFF1"/>
</g>
<defs>
<clipPath id="clip0">
<rect width="25" height="25" fill="white"/>
</clipPath>
</defs>
</svg>
