<svg width="25" height="25" viewBox="0 0 25 25" fill="none" xmlns="http://www.w3.org/2000/svg">
<path d="M12.4998 14.998L5.04199 12.7026V14.9609V16.5363C5.04199 18.3086 8.38206 19.7456 12.502 19.7456C16.6217 19.7456 19.9623 18.3086 19.9623 16.5363C19.9623 16.5224 19.9578 16.5083 19.9575 16.4947V12.7026L12.4998 14.998Z" fill="#4EAFF1"/>
<path d="M0 10.0639L2.66427 11.017L2.89131 10.5307L3.87009 10.4475L4.00965 10.5927L3.16976 10.7919L3.04735 11.1542C3.04713 11.1542 1.15019 15.12 1.4288 17.06C1.4288 17.06 2.61287 17.7663 3.79643 17.06L4.11097 11.7557V11.3141L5.87277 10.9167L5.74834 11.2231L4.43475 11.6503L5.04229 11.8673L12.5 14.1627L19.9577 11.8673L25 10.064L12.5 5.25488L0 10.0639Z" fill="#4EAFF1"/>
</svg>
