<svg width="25" height="25" viewBox="0 0 25 25" fill="none" xmlns="http://www.w3.org/2000/svg">
<path d="M12.4998 13.529C16.2357 13.529 19.2644 10.5004 19.2644 6.76447C19.2644 3.02851 16.2358 0 12.4998 0C8.76387 0 5.73536 3.02856 5.73536 6.76452C5.73994 10.4985 8.76583 13.5244 12.4998 13.529ZM12.4998 3.12208C14.5115 3.12208 16.1423 4.75283 16.1423 6.76452C16.1423 8.77621 14.5115 10.407 12.4998 10.407C10.4881 10.407 8.85739 8.77621 8.85739 6.76452C8.85739 4.75283 10.4882 3.12208 12.4998 3.12208Z" fill="white"/>
<path d="M19.1261 16.7344C19.8612 16.2502 20.3042 15.4292 20.3052 14.5489C20.3154 13.8184 19.9032 13.1475 19.2468 12.8266C18.5724 12.4897 17.7652 12.5656 17.1654 13.0222C14.3856 15.0488 10.6154 15.0488 7.83559 13.0222C7.23489 12.568 6.42905 12.4922 5.75419 12.8266C5.09812 13.1475 4.68566 13.8176 4.69478 14.5479C4.69634 15.428 5.13914 16.2487 5.8739 16.7333C6.81658 17.3602 7.84316 17.8507 8.92315 18.1903C9.10633 18.2472 9.29536 18.2999 9.49034 18.3485L6.34539 21.4238C5.52038 22.2242 5.50042 23.5419 6.3009 24.367C7.10137 25.192 8.41903 25.2119 9.24409 24.4114C9.26126 24.3948 9.27814 24.3778 9.29473 24.3606L12.5001 21.0428L15.7117 24.3668C16.5115 25.1924 17.8292 25.2134 18.6548 24.4136C19.4805 23.6138 19.5014 22.2961 18.7016 21.4705C18.6849 21.4532 18.6679 21.4362 18.6506 21.4196L15.5108 18.3474C15.7057 18.2975 15.8955 18.2444 16.08 18.1882C17.1589 17.85 18.1845 17.3605 19.1261 16.7344Z" fill="white"/>
</svg>
