<svg width="25" height="25" viewBox="0 0 25 25" fill="none" xmlns="http://www.w3.org/2000/svg">
<g clip-path="url(#clip0)">
<path d="M24.777 18.0906C24.7098 17.9781 24.2942 17.0749 22.294 15.2185C20.2001 13.2746 20.4814 13.5903 23.0035 10.2291C24.5395 8.18208 25.1536 6.93199 24.9614 6.39757C24.7786 5.88816 23.6488 6.02254 23.6488 6.02254L19.8923 6.04442C19.8923 6.04442 19.6142 6.00692 19.4063 6.13036C19.2048 6.25225 19.0751 6.53352 19.0751 6.53352C19.0751 6.53352 18.4797 8.11801 17.6859 9.46499C16.0123 12.3074 15.342 12.4574 15.0685 12.2808C14.4325 11.8699 14.5919 10.6276 14.5919 9.74626C14.5919 6.99137 15.0091 5.84284 13.7778 5.54595C13.3684 5.4475 13.0684 5.38187 12.023 5.37093C10.6822 5.35687 9.54622 5.37562 8.90399 5.68971C8.47583 5.8991 8.14612 6.36632 8.3477 6.39288C8.59615 6.4257 9.1587 6.54446 9.45716 6.95074C9.84312 7.47421 9.82906 8.65243 9.82906 8.65243C9.82906 8.65243 10.0509 11.8949 9.31183 12.298C8.80398 12.5746 8.10862 12.0105 6.61632 9.43061C5.8522 8.1102 5.27403 6.64915 5.27403 6.64915C5.27403 6.64915 5.16309 6.37726 4.96463 6.23194C4.72399 6.05536 4.38647 5.99911 4.38647 5.99911L0.814327 6.02098C0.814327 6.02098 0.27835 6.03661 0.0814599 6.26944C-0.0935531 6.47727 0.0673964 6.90542 0.0673964 6.90542C0.0673964 6.90542 2.86448 13.4481 6.03034 16.7468C8.93524 19.7704 12.2324 19.572 12.2324 19.572H13.7262C13.7262 19.572 14.1778 19.522 14.4075 19.2735C14.62 19.0454 14.6122 18.6172 14.6122 18.6172C14.6122 18.6172 14.5825 16.6124 15.5139 16.3171C16.4311 16.0264 17.6093 18.2547 18.8579 19.1126C19.8017 19.7611 20.5189 19.6189 20.5189 19.6189L23.8582 19.572C23.8582 19.572 25.6052 19.4642 24.777 18.0906Z" fill="white"/>
</g>
<defs>
<clipPath id="clip0">
<rect width="25" height="25" fill="white"/>
</clipPath>
</defs>
</svg>
